<?xml version="1.0" encoding="utf-8"?>
<svg data-v-fde0c5aa="" viewBox="0 0 300 300" class="iconLeft" xmlns="http://www.w3.org/2000/svg">
  <circle style="fill: rgb(232, 125, 34);" cx="149.731" cy="149.68" r="149.308"/>
  <g data-v-fde0c5aa="" id="g-1" stroke="none" fill="#762A0C" transform="matrix(3.795324, 0, 0, 3.992818, -38.587139, -51.137932)" style="filter: none;">
    <path d="M 71.44 66.67 C 64.62 49.67 56.67 45.16 56.67 36.67 L 56.67 26.67 C 56.67 26.67 60 25.918 60 25 C 60 25 59.252 20 58.33 20 L 41.67 20 C 40.748 20 40 25 40 25 C 40 25.922 43.34 26.67 43.34 26.67 L 43.34 36.67 C 43.34 45.16 35.34 49.67 28.57 66.67 C 26.39 72.08 20.82 80 50 80 C 79.18 80 73.61 72.08 71.44 66.67 Z M 66 72.5 C 63.66 73.2 59 74 50 74 C 41 74 38.563 72.918 36.273 72.218 C 35.446 71.891 35.056 70.943 35.413 70.128 C 36.567 66.494 42.09 57.485 45.855 56.883 C 56.906 55.117 56.549 55.809 59.046 57.277 C 62.336 59.211 65.726 66.769 66.9 70.4 C 67.26 71.229 66.848 72.189 66 72.5 Z" style="stroke-width: 2.45782px; fill: rgb(255, 255, 255);"/>
  </g>
</svg>